<svg width="32" height="32" viewBox="0 0 32 32" fill="none" xmlns="http://www.w3.org/2000/svg">
<path d="M26.8891 29.0669H5.11137C3.91359 29.0669 2.93359 28.0869 2.93359 26.8891V5.11137C2.93359 3.91359 3.91359 2.93359 5.11137 2.93359H26.8891C28.0869 2.93359 29.0669 3.91359 29.0669 5.11137V26.8891C29.0669 28.0869 28.0869 29.0669 26.8891 29.0669Z" fill="white"/>
<path d="M29.0669 7.59961H2.93359V26.8302C2.93359 28.06 3.91359 29.0663 5.11137 29.0663H26.8891C28.0869 29.0663 29.0669 28.06 29.0669 26.8302V7.59961Z" fill="#7BD1D1"/>
<path d="M27.1111 30H4.88889C3.28889 30 2 28.7111 2 27.1111V10.8889C2 10.5111 2.28889 10.2222 2.66667 10.2222C3.04444 10.2222 3.33333 10.5111 3.33333 10.8889V27.1111C3.33333 27.9778 4.02222 28.6667 4.88889 28.6667H27.1111C27.9778 28.6667 28.6667 27.9778 28.6667 27.1111V4.88889C28.6667 4.02222 27.9778 3.33333 27.1111 3.33333H4.88889C4.02222 3.33333 3.33333 4.02222 3.33333 4.88889V7.33333H26.4444C26.8222 7.33333 27.1111 7.62222 27.1111 8C27.1111 8.37778 26.8222 8.66667 26.4444 8.66667H2.66667C2.28889 8.66667 2 8.37778 2 8V4.88889C2 3.28889 3.28889 2 4.88889 2H27.1111C28.7111 2 30 3.28889 30 4.88889V27.1111C30 28.7111 28.7111 30 27.1111 30Z" fill="#2F4158"/>
<path d="M19.3968 17.7229L15.1408 15.154C14.9392 15.0372 14.6704 15.0372 14.4688 15.154C14.2672 15.2708 14.1328 15.5043 14.1328 15.7612V20.8991C14.1328 21.156 14.2672 21.3896 14.4688 21.5063C14.5808 21.5764 14.6928 21.5997 14.8048 21.5997C14.9168 21.5997 15.0288 21.5764 15.1408 21.5063L19.3968 18.9374C19.5984 18.8206 19.7328 18.587 19.7328 18.3302C19.7328 18.0733 19.5984 17.8397 19.3968 17.7229Z" fill="white"/>
</svg>
