<svg width="26" height="26" viewBox="0 0 26 26" fill="none" xmlns="http://www.w3.org/2000/svg">
<path d="M19 8.33301H25.6667L13 24.9997L19 8.33301Z" fill="#0D47A1"/>
<path d="M0.333984 8.33301L7.00065 0.333008V8.33301H0.333984Z" fill="#84FFFF"/>
<path d="M19 0.333008V8.33301H25.6667L19 0.333008Z" fill="#1976D2"/>
<path d="M7 8.33301L12.9973 25.099L19 8.33301H7ZM7 0.333008H13L7 8.33301V0.333008ZM13 0.333008L19 8.33301V0.333008H13Z" fill="#0091EA"/>
<path d="M19 8.33301H7L13 0.333008L19 8.33301ZM19 8.33301L22.3333 6.99967L25.6667 8.33301L22.3333 9.66634L19 8.33301Z" fill="#00B0FF"/>
<path d="M7.00065 8.33333H0.333984L12.998 25.0993L7.00065 8.33333ZM7.00065 8.33333L13.0007 7L19.0007 8.33333L13.0007 9.66667L7.00065 8.33333Z" fill="#00E5FF"/>
<path d="M0.333984 8.33333L3.66732 7L7.00065 8.33333L3.66732 9.66667L0.333984 8.33333Z" fill="#E0F7FA"/>
</svg>
