<svg width="32" height="32" viewBox="0 0 32 32" fill="none" xmlns="http://www.w3.org/2000/svg">
<path d="M14.0699 2.20816C14.0583 2.16798 14.0528 2.09559 14.0536 2.04284C14.0564 1.64747 14.3792 1.32926 14.7755 1.33304C14.9434 1.33425 15.0599 1.39811 15.1066 1.41674C15.978 1.7649 21.962 4.64517 20.5093 12.8214C22.5357 11.6222 21.8327 9.25614 22.4938 9.26121C22.7414 9.2632 22.8424 9.35669 22.9922 9.57458C25.1744 12.7404 26.815 16.5096 26.7886 20.0227C26.7419 25.9471 21.9021 30.7127 15.9776 30.666C9.46301 30.6154 5.29341 25.0944 5.33428 19.855C5.39904 11.1389 15.6843 9.61047 14.0699 2.20816Z" fill="url(#paint0_linear_11_2071)"/>
<path d="M15.4289 11.8405C15.4289 11.8405 15.2478 11.6838 14.984 11.6817C14.5848 11.6786 14.2589 11.9995 14.2569 12.3978C14.9455 16.7358 9.8795 18.1396 9.84002 23.1947C9.81508 26.3853 12.3812 28.9914 15.5718 29.0163C18.7624 29.0412 21.3685 26.4752 21.3934 23.2846C21.4237 19.1688 17.8426 13.6477 15.4289 11.8405Z" fill="url(#paint1_linear_11_2071)"/>
<defs>
<linearGradient id="paint0_linear_11_2071" x1="12.8501" y1="1.49626" x2="17.8568" y2="30.2551" gradientUnits="userSpaceOnUse">
<stop stop-color="#F44F5A"/>
<stop offset="0.443" stop-color="#EE3D4A"/>
<stop offset="1" stop-color="#E52030"/>
</linearGradient>
<linearGradient id="paint1_linear_11_2071" x1="13.3455" y1="10.2386" x2="17.5844" y2="34.4538" gradientUnits="userSpaceOnUse">
<stop stop-color="#FED100"/>
<stop offset="1" stop-color="#E36001"/>
</linearGradient>
</defs>
</svg>
