<svg width="171" height="56" viewBox="0 0 171 56" fill="none" xmlns="http://www.w3.org/2000/svg">
<g filter="url(#filter0_d_11_2182)">
<rect x="4" y="4" width="163" height="48" rx="8" fill="#0DBBBF"/>
<path d="M23.984 28.592C24.4107 28.592 24.7093 28.5013 24.88 28.32C25.0507 28.1387 25.136 27.9627 25.136 27.792C25.136 27.696 25.1147 27.568 25.072 27.408C25.04 27.248 24.9707 27.0027 24.864 26.672C24.7573 26.3413 24.6027 25.8987 24.4 25.344C24.1973 24.7787 23.936 24.048 23.616 23.152L24.864 22.64L26.544 27.392C26.6933 27.8293 26.8693 28.1387 27.072 28.32C27.2747 28.5013 27.5733 28.592 27.968 28.592H28.176C28.4107 28.592 28.528 28.8213 28.528 29.28C28.528 29.76 28.4107 30 28.176 30H27.968C27.616 30 27.2747 29.936 26.944 29.808C26.624 29.68 26.3307 29.3973 26.064 28.96C25.84 29.3653 25.5573 29.6427 25.216 29.792C24.8853 29.9307 24.5227 30 24.128 30H20.688L20.608 28.592H23.984ZM29.6279 28.592C30.0119 28.592 30.3105 28.4907 30.5239 28.288C30.7479 28.0853 30.8599 27.7973 30.8599 27.424V25.376H32.1719V27.488C32.1719 28.2987 31.9532 28.9227 31.5159 29.36C31.0892 29.7867 30.4919 30 29.7239 30H28.1719C28.0332 30 27.9425 29.9467 27.8999 29.84C27.8465 29.7227 27.8199 29.552 27.8199 29.328C27.8199 29.072 27.8465 28.8853 27.8999 28.768C27.9425 28.6507 28.0332 28.592 28.1719 28.592H29.6279ZM31.8359 33.168H30.4279V31.824H31.8359V33.168ZM29.6599 33.168H28.2359V31.824H29.6599V33.168ZM37.0309 28.592C37.4575 28.592 37.7562 28.5013 37.9269 28.32C38.0975 28.1387 38.1829 27.9627 38.1829 27.792C38.1829 27.696 38.1615 27.568 38.1189 27.408C38.0869 27.248 38.0175 27.0027 37.9109 26.672C37.8042 26.3413 37.6495 25.8987 37.4469 25.344C37.2442 24.7787 36.9829 24.048 36.6629 23.152L37.9109 22.64L39.5909 27.392C39.7402 27.8293 39.9162 28.1387 40.1189 28.32C40.3215 28.5013 40.6202 28.592 41.0149 28.592H41.2229C41.4575 28.592 41.5749 28.8213 41.5749 29.28C41.5749 29.76 41.4575 30 41.2229 30H41.0149C40.6629 30 40.3215 29.936 39.9909 29.808C39.6709 29.68 39.3775 29.3973 39.1109 28.96C38.8869 29.3653 38.6042 29.6427 38.2629 29.792C37.9322 29.9307 37.5695 30 37.1749 30H33.7349L33.6549 28.592H37.0309ZM45.8268 29.072C45.5494 29.2427 45.2774 29.3867 45.0108 29.504C44.7441 29.6213 44.4561 29.7173 44.1468 29.792C43.8481 29.8667 43.5174 29.92 43.1548 29.952C42.7921 29.984 42.3761 30 41.9068 30H41.2188C41.0801 30 40.9894 29.9467 40.9467 29.84C40.8934 29.7227 40.8667 29.552 40.8667 29.328C40.8667 29.072 40.8934 28.8853 40.9467 28.768C40.9894 28.6507 41.0801 28.592 41.2188 28.592H41.9548C42.3601 28.592 42.7174 28.5813 43.0268 28.56C43.3468 28.5387 43.6401 28.5013 43.9068 28.448C44.1734 28.3947 44.4241 28.3253 44.6588 28.24C44.8934 28.144 45.1334 28.0267 45.3788 27.888L47.7628 26.512C47.6774 26.32 47.5921 26.1547 47.5068 26.016C47.4321 25.8667 47.3308 25.7387 47.2028 25.632C47.0748 25.5253 46.9201 25.4453 46.7388 25.392C46.5574 25.3387 46.3281 25.312 46.0508 25.312H42.5628L42.6588 23.904H46.2428C46.5308 23.904 46.8188 23.9413 47.1068 24.016C47.4054 24.0907 47.6828 24.24 47.9388 24.464C48.2054 24.688 48.4508 25.008 48.6748 25.424C48.8988 25.84 49.0854 26.3893 49.2348 27.072L45.8268 29.072ZM45.9227 33.2H44.3548V31.824H45.9227V33.2ZM53.1121 27.536C53.1121 27.216 53.1548 26.9173 53.2401 26.64C53.3255 26.352 53.4481 26.064 53.6081 25.776C53.7788 25.488 53.9921 25.1947 54.2481 24.896C54.5041 24.5867 54.8081 24.2507 55.1601 23.888L54.4241 23.152L55.3201 22.192C55.9815 22.8427 56.5308 23.408 56.9681 23.888C57.4161 24.368 57.7735 24.8 58.0401 25.184C58.3175 25.568 58.5095 25.9307 58.6161 26.272C58.7335 26.6027 58.7921 26.9493 58.7921 27.312C58.7921 27.696 58.7175 28.0533 58.5681 28.384C58.4295 28.7147 58.2268 29.0027 57.9601 29.248C57.7041 29.4827 57.4001 29.6693 57.0481 29.808C56.6961 29.936 56.3121 30 55.8961 30C55.4801 30 55.0961 29.9413 54.7441 29.824C54.4028 29.696 54.1095 29.5253 53.8641 29.312C53.6295 29.0987 53.4428 28.8427 53.3041 28.544C53.1761 28.2347 53.1121 27.8987 53.1121 27.536ZM57.4801 27.248C57.4801 27.0773 57.4588 26.912 57.4161 26.752C57.3735 26.592 57.2935 26.4213 57.1761 26.24C57.0588 26.048 56.8988 25.84 56.6961 25.616C56.5041 25.3813 56.2535 25.1147 55.9441 24.816C55.6135 25.136 55.3468 25.4187 55.1441 25.664C54.9415 25.9093 54.7868 26.128 54.6801 26.32C54.5735 26.512 54.4988 26.688 54.4561 26.848C54.4241 26.9973 54.4081 27.1467 54.4081 27.296C54.4081 27.6587 54.5361 27.968 54.7921 28.224C55.0588 28.4693 55.4321 28.592 55.9121 28.592C56.3921 28.592 56.7708 28.4587 57.0481 28.192C57.3361 27.9253 57.4801 27.6107 57.4801 27.248ZM62.4261 29.744C62.4261 30.3413 62.3248 30.8907 62.1221 31.392C61.9301 31.904 61.6635 32.3413 61.3221 32.704C60.9808 33.0773 60.5755 33.3653 60.1061 33.568C59.6368 33.7707 59.1301 33.872 58.5861 33.872H57.6101L57.5301 32.48H58.2661C58.7781 32.48 59.2155 32.4 59.5781 32.24C59.9301 32.0907 60.2181 31.888 60.4421 31.632C60.6768 31.376 60.8475 31.0827 60.9541 30.752C61.0608 30.432 61.1141 30.096 61.1141 29.744V25.376H62.4261V29.744ZM65.6325 32.48C66.0698 32.48 66.4538 32.4107 66.7845 32.272C67.1152 32.144 67.3872 31.968 67.6005 31.744C67.8245 31.52 67.9952 31.2587 68.1125 30.96C68.2298 30.6613 68.2992 30.3413 68.3205 30H66.9605C66.4165 30 65.9685 29.9413 65.6165 29.824C65.2645 29.7067 64.9872 29.536 64.7845 29.312C64.5818 29.088 64.4378 28.816 64.3525 28.496C64.2778 28.1653 64.2405 27.7973 64.2405 27.392C64.2405 26.9867 64.2992 26.6027 64.4165 26.24C64.5338 25.8667 64.7045 25.5413 64.9285 25.264C65.1525 24.9867 65.4298 24.768 65.7605 24.608C66.1018 24.4373 66.4965 24.352 66.9445 24.352C67.2965 24.352 67.6325 24.4107 67.9525 24.528C68.2832 24.6453 68.5712 24.832 68.8165 25.088C69.0618 25.3333 69.2538 25.6587 69.3925 26.064C69.5418 26.4693 69.6165 26.96 69.6165 27.536V29.744C69.6165 30.288 69.5258 30.8107 69.3445 31.312C69.1738 31.8133 68.9178 32.2507 68.5765 32.624C68.2458 33.008 67.8405 33.312 67.3605 33.536C66.8805 33.76 66.3365 33.872 65.7285 33.872H64.0645L63.9685 32.48H65.6325ZM65.4885 27.312C65.4885 27.7707 65.5952 28.1013 65.8085 28.304C66.0325 28.496 66.4592 28.592 67.0885 28.592H68.3525V27.6C68.3525 26.928 68.2192 26.448 67.9525 26.16C67.6965 25.8613 67.3338 25.712 66.8645 25.712C66.4272 25.712 66.0858 25.856 65.8405 26.144C65.6058 26.4213 65.4885 26.8107 65.4885 27.312ZM77.1404 26.096C77.4177 26.416 77.6204 26.736 77.7484 27.056C77.8764 27.3653 77.9404 27.6693 77.9404 27.968C77.9404 28.256 77.887 28.5227 77.7804 28.768C77.6737 29.0133 77.519 29.2267 77.3164 29.408C77.1244 29.5893 76.879 29.7333 76.5804 29.84C76.2817 29.9467 75.9404 30 75.5564 30H71.1724L71.0924 28.592H75.3644C75.7057 28.592 75.967 28.5173 76.1484 28.368C76.3297 28.208 76.4204 28.0053 76.4204 27.76C76.4204 27.4827 76.2977 27.2107 76.0524 26.944L73.2044 23.696L74.2284 22.736L77.1404 26.096ZM90.5821 29.632C90.5821 30.2187 90.4861 30.768 90.2941 31.28C90.1128 31.8027 89.8515 32.256 89.5101 32.64C89.1688 33.024 88.7528 33.3227 88.2621 33.536C87.7715 33.76 87.2221 33.872 86.6141 33.872H85.6381C84.4435 33.872 83.5155 33.504 82.8541 32.768C82.1928 32.032 81.8621 31.024 81.8621 29.744V26.912H83.1581V29.696C83.1581 30.528 83.3661 31.2 83.7821 31.712C84.1981 32.224 84.8808 32.48 85.8301 32.48H86.5341C87.0141 32.48 87.4248 32.4053 87.7661 32.256C88.1181 32.1067 88.4061 31.904 88.6301 31.648C88.8541 31.392 89.0195 31.0933 89.1261 30.752C89.2328 30.4107 89.2861 30.0533 89.2861 29.68V25.376H90.5821V29.632ZM86.7741 25.072H85.2061V23.696H86.7741V25.072ZM98.1248 26.096C98.4021 26.416 98.6048 26.736 98.7328 27.056C98.8608 27.3653 98.9248 27.6693 98.9248 27.968C98.9248 28.256 98.8714 28.5227 98.7648 28.768C98.6581 29.0133 98.5034 29.2267 98.3008 29.408C98.1088 29.5893 97.8634 29.7333 97.5648 29.84C97.2661 29.9467 96.9248 30 96.5408 30H92.1568L92.0768 28.592H96.3488C96.6901 28.592 96.9514 28.5173 97.1328 28.368C97.3141 28.208 97.4048 28.0053 97.4048 27.76C97.4048 27.4827 97.2821 27.2107 97.0368 26.944L94.1888 23.696L95.2128 22.736L98.1248 26.096ZM102.023 32.48C102.46 32.48 102.844 32.4107 103.175 32.272C103.506 32.144 103.778 31.968 103.991 31.744C104.215 31.52 104.386 31.2587 104.503 30.96C104.62 30.6613 104.69 30.3413 104.711 30H103.351C102.807 30 102.359 29.9413 102.007 29.824C101.655 29.7067 101.378 29.536 101.175 29.312C100.972 29.088 100.828 28.816 100.743 28.496C100.668 28.1653 100.631 27.7973 100.631 27.392C100.631 26.9867 100.69 26.6027 100.807 26.24C100.924 25.8667 101.095 25.5413 101.319 25.264C101.543 24.9867 101.82 24.768 102.151 24.608C102.492 24.4373 102.887 24.352 103.335 24.352C103.687 24.352 104.023 24.4107 104.343 24.528C104.674 24.6453 104.962 24.832 105.207 25.088C105.452 25.3333 105.644 25.6587 105.783 26.064C105.932 26.4693 106.007 26.96 106.007 27.536V29.744C106.007 30.288 105.916 30.8107 105.735 31.312C105.564 31.8133 105.308 32.2507 104.967 32.624C104.636 33.008 104.231 33.312 103.751 33.536C103.271 33.76 102.727 33.872 102.119 33.872H100.455L100.359 32.48H102.023ZM101.879 27.312C101.879 27.7707 101.986 28.1013 102.199 28.304C102.423 28.496 102.85 28.592 103.479 28.592H104.743V27.6C104.743 26.928 104.61 26.448 104.343 26.16C104.087 25.8613 103.724 25.712 103.255 25.712C102.818 25.712 102.476 25.856 102.231 26.144C101.996 26.4213 101.879 26.8107 101.879 27.312ZM110.52 27.472C110.52 27.824 110.632 28.1013 110.856 28.304C111.091 28.496 111.389 28.592 111.752 28.592H111.928C112.163 28.592 112.28 28.8213 112.28 29.28C112.28 29.76 112.163 30 111.928 30H111.752C111.517 30 111.283 29.9573 111.048 29.872C110.813 29.7867 110.616 29.632 110.456 29.408V29.744C110.456 30.3413 110.36 30.8907 110.168 31.392C109.976 31.904 109.709 32.3413 109.368 32.704C109.037 33.0773 108.643 33.3653 108.184 33.568C107.725 33.7707 107.224 33.872 106.68 33.872H106.264L106.152 32.48H106.44C106.931 32.48 107.347 32.4 107.688 32.24C108.04 32.0907 108.328 31.888 108.552 31.632C108.776 31.376 108.941 31.0827 109.048 30.752C109.155 30.432 109.208 30.096 109.208 29.744V25.376H110.52V27.472ZM110.424 23.408H108.856V22.032H110.424V23.408ZM114.034 28.592C114.343 28.592 114.594 28.5973 114.786 28.608C114.978 28.608 115.197 28.624 115.442 28.656C114.941 28.4747 114.546 28.2933 114.258 28.112C113.97 27.92 113.751 27.7227 113.602 27.52C113.463 27.3067 113.373 27.0773 113.33 26.832C113.287 26.5867 113.266 26.3093 113.266 26C113.266 25.712 113.319 25.4133 113.426 25.104C113.543 24.7947 113.714 24.5173 113.938 24.272C114.162 24.016 114.439 23.808 114.77 23.648C115.111 23.488 115.501 23.408 115.938 23.408C116.354 23.408 116.727 23.4613 117.058 23.568C117.399 23.6747 117.687 23.856 117.922 24.112C118.167 24.3573 118.354 24.6827 118.482 25.088C118.621 25.4827 118.69 25.968 118.69 26.544V27.312C118.69 28.144 118.439 28.8 117.938 29.28C117.447 29.76 116.669 30 115.602 30H111.922C111.783 30 111.693 29.9467 111.65 29.84C111.597 29.7227 111.57 29.552 111.57 29.328C111.57 29.072 111.597 28.8853 111.65 28.768C111.693 28.6507 111.783 28.592 111.922 28.592H114.034ZM115.874 24.832C115.65 24.832 115.453 24.8747 115.282 24.96C115.111 25.0347 114.962 25.136 114.834 25.264C114.717 25.392 114.626 25.5413 114.562 25.712C114.509 25.872 114.482 26.0373 114.482 26.208C114.482 26.3893 114.498 26.56 114.53 26.72C114.573 26.8693 114.674 27.024 114.834 27.184C115.005 27.344 115.261 27.5147 115.602 27.696C115.943 27.8667 116.413 28.064 117.01 28.288C117.138 28.1707 117.234 28.0107 117.298 27.808C117.373 27.6053 117.41 27.3867 117.41 27.152V26.672C117.41 26.1067 117.293 25.6587 117.058 25.328C116.834 24.9973 116.439 24.832 115.874 24.832ZM116.722 21.952H115.154V20.576H116.722V21.952ZM120.619 20.08H121.931V30H120.619V20.08Z" fill="white"/>
<path d="M135.782 24.9384L135.899 25.6792H135.899L135.782 24.9384ZM139.938 20.7822L140.679 20.8995V20.8995L139.938 20.7822ZM149.939 36.0451L149.498 35.4383L149.939 36.0451ZM151.045 34.9389L150.438 34.4981L151.045 34.9389ZM134.955 34.9389L135.562 34.4981L134.955 34.9389ZM136.061 36.0451L136.502 35.4383L136.061 36.0451ZM136.061 19.9549L135.62 19.3482L136.061 19.9549ZM134.955 21.0611L134.348 20.6202L134.955 21.0611ZM149.939 19.9549L149.498 20.5617L149.939 19.9549ZM151.045 21.0611L150.438 21.5019L151.045 21.0611ZM140 19.0289L139.974 18.2794L140 19.0289ZM134.029 25L133.279 24.9743L134.029 25ZM141 28.25C140.586 28.25 140.25 28.5858 140.25 29C140.25 29.4142 140.586 29.75 141 29.75V28.25ZM147 29.75C147.414 29.75 147.75 29.4142 147.75 29C147.75 28.5858 147.414 28.25 147 28.25V29.75ZM143.25 32C143.25 32.4142 143.586 32.75 144 32.75C144.414 32.75 144.75 32.4142 144.75 32H143.25ZM144.75 26C144.75 25.5858 144.414 25.25 144 25.25C143.586 25.25 143.25 25.5858 143.25 26H144.75ZM135.899 25.6792C138.36 25.2895 140.29 23.3599 140.679 20.8995L139.198 20.6648C138.91 22.4834 137.483 23.9096 135.665 24.1977L135.899 25.6792ZM143 37.75C144.858 37.75 146.312 37.751 147.464 37.6263C148.629 37.5 149.573 37.2377 150.38 36.6518L149.498 35.4383C148.99 35.8074 148.34 36.0225 147.302 36.135C146.25 36.249 144.892 36.25 143 36.25V37.75ZM151.25 28C151.25 29.8916 151.249 31.25 151.135 32.302C151.023 33.3399 150.807 33.9901 150.438 34.4981L151.652 35.3798C152.238 34.5734 152.5 33.6291 152.626 32.4635C152.751 31.312 152.75 29.8582 152.75 28H151.25ZM150.38 36.6518C150.868 36.2972 151.297 35.8679 151.652 35.3798L150.438 34.4981C150.176 34.8589 149.859 35.1762 149.498 35.4383L150.38 36.6518ZM133.25 28C133.25 29.8582 133.249 31.312 133.374 32.4635C133.5 33.6291 133.762 34.5734 134.348 35.3798L135.562 34.4981C135.193 33.9901 134.977 33.3399 134.865 32.302C134.751 31.25 134.75 29.8916 134.75 28H133.25ZM143 36.25C141.108 36.25 139.75 36.249 138.698 36.135C137.66 36.0225 137.01 35.8074 136.502 35.4383L135.62 36.6518C136.427 37.2377 137.371 37.5 138.536 37.6263C139.688 37.751 141.142 37.75 143 37.75V36.25ZM134.348 35.3798C134.703 35.8679 135.132 36.2972 135.62 36.6518L136.502 35.4383C136.141 35.1762 135.824 34.8589 135.562 34.4981L134.348 35.3798ZM135.62 19.3482C135.132 19.7028 134.703 20.1321 134.348 20.6202L135.562 21.5019C135.824 21.1411 136.141 20.8238 136.502 20.5617L135.62 19.3482ZM143 19.75C144.892 19.75 146.25 19.751 147.302 19.865C148.34 19.9775 148.99 20.1926 149.498 20.5617L150.38 19.3482C149.573 18.7623 148.629 18.5 147.464 18.3737C146.312 18.249 144.858 18.25 143 18.25V19.75ZM152.75 28C152.75 26.1418 152.751 24.688 152.626 23.5365C152.5 22.3709 152.238 21.4266 151.652 20.6202L150.438 21.5019C150.807 22.0099 151.023 22.6601 151.135 23.698C151.249 24.75 151.25 26.1084 151.25 28H152.75ZM149.498 20.5617C149.859 20.8238 150.176 21.1411 150.438 21.5019L151.652 20.6202C151.297 20.1321 150.868 19.7028 150.38 19.3482L149.498 20.5617ZM143 18.25C141.835 18.25 140.834 18.2499 139.974 18.2794L140.026 19.7785C140.854 19.7501 141.827 19.75 143 19.75V18.25ZM139.974 18.2794C138.101 18.3436 136.724 18.5463 135.62 19.3482L136.502 20.5617C137.207 20.0491 138.171 19.842 140.026 19.7785L139.974 18.2794ZM139.25 19.0289C139.25 19.9662 139.247 20.353 139.198 20.6648L140.679 20.8995C140.752 20.4421 140.75 19.9112 140.75 19.0289L139.25 19.0289ZM134.75 28C134.75 26.8269 134.75 25.8544 134.778 25.0257L133.279 24.9743C133.25 25.8342 133.25 26.8352 133.25 28H134.75ZM134.778 25.0257C134.842 23.1708 135.049 22.2075 135.562 21.5019L134.348 20.6202C133.546 21.7239 133.344 23.1009 133.279 24.9743L134.778 25.0257ZM134.029 25.75C134.911 25.75 135.442 25.7516 135.899 25.6792L135.665 24.1977C135.353 24.2471 134.966 24.25 134.029 24.25L134.029 25.75ZM141 29.75H147V28.25H141V29.75ZM144.75 32V26H143.25V32H144.75Z" fill="white"/>
</g>
<defs>
<filter id="filter0_d_11_2182" x="0" y="0" width="171" height="56" filterUnits="userSpaceOnUse" color-interpolation-filters="sRGB">
<feFlood flood-opacity="0" result="BackgroundImageFix"/>
<feColorMatrix in="SourceAlpha" type="matrix" values="0 0 0 0 0 0 0 0 0 0 0 0 0 0 0 0 0 0 127 0" result="hardAlpha"/>
<feOffset/>
<feGaussianBlur stdDeviation="2"/>
<feComposite in2="hardAlpha" operator="out"/>
<feColorMatrix type="matrix" values="0 0 0 0 0 0 0 0 0 0 0 0 0 0 0 0 0 0 0.25 0"/>
<feBlend mode="normal" in2="BackgroundImageFix" result="effect1_dropShadow_11_2182"/>
<feBlend mode="normal" in="SourceGraphic" in2="effect1_dropShadow_11_2182" result="shape"/>
</filter>
</defs>
</svg>
