<svg width="63" height="70" viewBox="0 0 63 70" fill="none" xmlns="http://www.w3.org/2000/svg">
<path d="M61.7374 40.7996C56.8774 57.5005 39.4015 67.0969 22.7022 62.2369C6.00279 57.3777 -3.59755 39.9019 1.26244 23.2017C6.12243 6.50075 23.599 -3.09641 40.2992 1.76199C56.9994 6.62119 66.5974 24.0994 61.7374 40.7996Z" fill="url(#paint0_radial_1_19)"/>
<path d="M28.8857 31.9794L28.9165 26.3719C28.9246 24.9117 30.1147 23.7345 31.5749 23.7425C33.0351 23.7506 34.2123 24.9407 34.2043 26.4009L34.1735 32.0084L36.6177 32.0218L36.6474 26.6161C36.6628 23.806 34.3973 21.5155 31.5872 21.5001C28.7772 21.4847 26.4867 23.7502 26.4712 26.5602L26.4416 31.966L28.8857 31.9794Z" fill="url(#paint1_linear_1_19)"/>
<path d="M28.2908 26.6547L28.2803 28.5572C27.6202 28.6138 27.0016 28.8168 26.4573 29.1338L26.4416 31.966L28.8857 31.9794L28.9165 26.3719C28.9217 25.4272 29.422 24.6011 30.1699 24.1377C29.088 24.4641 28.2974 25.4655 28.2908 26.6547Z" fill="#333333"/>
<path d="M31.5872 21.5001C30.709 21.4952 29.8815 21.7132 29.1584 22.1009C29.7194 21.892 30.327 21.7793 30.9611 21.7828C33.7712 21.7982 36.0367 24.0888 36.0213 26.8988L36.0072 29.4712C35.8477 29.3888 35.6826 29.3158 35.5124 29.2532C35.5107 29.2527 35.5091 29.252 35.5074 29.2514C35.4344 29.2247 35.3604 29.1999 35.2857 29.177C35.0321 29.0919 34.7784 29.0067 34.5248 28.9216C34.4158 28.8745 34.3044 28.8317 34.191 28.7935L34.1735 32.0084L36.6177 32.0218L36.6474 26.6161C36.6628 23.806 34.3973 21.5155 31.5872 21.5001Z" fill="#333333"/>
<path d="M35.5097 29.874L35.5047 29.8722C35.4317 29.8455 35.3577 29.8207 35.283 29.7978C34.7982 29.6351 34.3134 29.4723 33.8287 29.3096C33.7746 29.4076 33.7205 29.5057 33.6665 29.6038L29.8928 29.5831C27.472 29.5698 25.4987 31.5215 25.4854 33.9423L25.4628 38.0702C25.4552 39.4609 26.0962 40.7037 27.1019 41.5122C27.0612 41.5859 27.0206 41.6597 26.98 41.7334C27.3862 41.8746 27.7923 42.0159 28.1985 42.1572C28.3353 42.2127 28.4755 42.2616 28.6188 42.3034C29.0007 42.4144 29.4046 42.4752 29.822 42.4775L33.9499 42.5001C36.3708 42.5134 38.344 40.5617 38.3573 38.1409L38.3799 34.013C38.3903 32.1156 37.1934 30.4933 35.5097 29.874Z" fill="#333333"/>
<path d="M32.7372 42.0783L28.6092 42.0556C26.1884 42.0423 24.2368 40.0691 24.2501 37.6483L24.2727 33.5204C24.286 31.0996 26.2592 29.1479 28.68 29.1612L32.808 29.1838C35.2288 29.1971 37.1805 31.1704 37.1671 33.5912L37.1445 37.7191C37.1312 40.1399 35.158 42.0916 32.7372 42.0783Z" fill="url(#paint2_linear_1_19)"/>
<path d="M32.5 34.3495C32.5059 33.4699 31.8391 32.7538 31.0107 32.75C30.1823 32.7463 29.506 33.4564 29.5 34.336C29.4955 35.0204 29.8982 35.6057 30.4673 35.8335C30.2029 37.0519 29.9384 38.2704 29.6739 39.4888L32.1711 39.5C31.9249 38.2889 31.6788 37.0778 31.4326 35.8667C32.0462 35.6689 32.4952 35.0654 32.5 34.3495Z" fill="#FFFDFB"/>
<path d="M37.5077 7.87334C24.4379 4.07108 10.7643 11.5829 6.96044 24.6496C3.15817 37.7202 10.6676 51.3969 23.7367 55.2C36.8033 59.0015 50.4785 51.4904 54.2839 38.4206C58.0846 25.3531 50.5768 11.6764 37.5077 7.87334ZM25.1945 50.1879C14.8914 47.1898 8.97209 36.4105 11.9702 26.1066C14.9682 15.8051 25.746 9.88579 36.0506 12.8839C46.3522 15.8819 52.2754 26.6612 49.2766 36.9628C46.2777 47.2651 35.4976 53.1883 25.1945 50.1879Z" fill="white"/>
<path d="M13.5454 55.4375C10.4166 50.816 9.28993 44.888 10.9712 39.1066C13.9693 28.8051 24.747 22.8857 35.0517 25.8838C39.464 27.1673 43.065 29.8858 45.5124 33.3774C43.0626 29.7606 39.3879 26.9447 34.8655 25.6287C24.5624 22.6306 13.7823 28.5491 10.785 38.8522C9.07124 44.7414 10.2795 50.7812 13.5454 55.4375Z" fill="white"/>
<path d="M49.8265 30.4394C53.8006 36.3049 55.2339 43.8278 53.0987 51.1645C49.2964 64.2367 35.6197 71.7454 22.5538 67.9431C16.9268 66.3062 12.341 62.8352 9.23438 58.3777C12.3434 62.9611 17.0069 66.5312 22.7384 68.199C35.8051 72.0005 49.4802 64.4895 53.2856 51.4197C55.451 43.9752 53.9401 36.3413 49.8265 30.4394Z" fill="#F2F2F2"/>
<path d="M28.4395 51.2475C28.5195 51.2712 28.5956 51.3061 28.6772 51.3283C38.9779 54.3272 49.7588 48.4055 52.756 38.104C55.7557 27.8024 49.834 17.0231 39.5325 14.0243C39.4517 14.0021 39.3685 13.9902 39.2893 13.9648C49.4379 17.062 55.2502 27.7422 52.2767 37.9629C49.3016 48.186 38.6665 54.0831 28.4395 51.2475Z" fill="black"/>
<path d="M10.443 25.7898C14.2207 12.804 27.7508 5.3159 40.7454 8.95574C40.6638 8.93197 40.5885 8.89869 40.5077 8.87334C27.4379 5.07108 13.7643 12.5829 9.96044 25.6496C6.15817 38.7202 13.6676 52.3969 26.7367 56.2C26.8167 56.2238 26.8983 56.2349 26.9815 56.2563C14.0622 52.3573 6.66288 38.7796 10.443 25.7898Z" fill="black"/>
<defs>
<radialGradient id="paint0_radial_1_19" cx="0" cy="0" r="1" gradientUnits="userSpaceOnUse" gradientTransform="translate(15.6763 5.74837) rotate(17.6015) scale(91.6889 98.5143)">
<stop stop-color="white"/>
<stop offset="1" stop-color="#969696"/>
</radialGradient>
<linearGradient id="paint1_linear_1_19" x1="12.7482" y1="9.76224" x2="55.6715" y2="57.4092" gradientUnits="userSpaceOnUse">
<stop stop-color="#E1DEDE"/>
<stop offset="1" stop-color="#6A6A6A"/>
</linearGradient>
<linearGradient id="paint2_linear_1_19" x1="9.68856" y1="9.55751" x2="70.7883" y2="60.1319" gradientUnits="userSpaceOnUse">
<stop stop-color="#C0C0C0"/>
<stop offset="1" stop-color="#303030"/>
</linearGradient>
</defs>
</svg>
