<svg width="16" height="16" viewBox="0 0 16 16" fill="none" xmlns="http://www.w3.org/2000/svg">
    <path d="M8.43946 5.33398C8.43946 5.08912 8.24096 4.89062 7.9961 4.89062C7.75123 4.89062 7.55273 5.08912 7.55273 5.33398H8.43946ZM9.9961 9.11068C10.241 9.11068 10.4395 8.91218 10.4395 8.66732C10.4395 8.42245 10.241 8.22395 9.9961 8.22395V9.11068ZM1.71913 1.82111C1.52792 1.97407 1.49692 2.25308 1.64989 2.44428C1.80285 2.63549 2.08186 2.66649 2.27306 2.51353L1.71913 1.82111ZM3.93973 1.18019C4.13094 1.02723 4.16194 0.748223 4.00897 0.557018C3.85601 0.365812 3.577 0.334811 3.3858 0.487776L3.93973 1.18019ZM13.7191 2.51353C13.9103 2.66649 14.1893 2.63549 14.3423 2.44428C14.4953 2.25308 14.4643 1.97407 14.2731 1.82111L13.7191 2.51353ZM12.6064 0.487776C12.4152 0.334811 12.1362 0.365812 11.9832 0.557018C11.8303 0.748223 11.8613 1.02723 12.0525 1.18019L12.6064 0.487776ZM7.9961 7.66732H7.55273H7.9961ZM7.55273 5.33398L7.55273 7.66732H8.43946L8.43946 5.33398H7.55273ZM14.2194 8.00065C14.2194 11.4377 11.4331 14.224 7.9961 14.224V15.1107C11.9229 15.1107 15.1061 11.9274 15.1061 8.00065H14.2194ZM7.9961 14.224C4.55906 14.224 1.77279 11.4377 1.77279 8.00065H0.886067C0.886067 11.9274 4.06934 15.1107 7.9961 15.1107V14.224ZM1.77279 8.00065C1.77279 4.56361 4.55906 1.77735 7.9961 1.77735V0.890621C4.06934 0.890621 0.886067 4.07389 0.886067 8.00065H1.77279ZM7.9961 1.77735C11.4331 1.77735 14.2194 4.56361 14.2194 8.00065H15.1061C15.1061 4.07389 11.9229 0.890621 7.9961 0.890621V1.77735ZM2.27306 2.51353L3.93973 1.18019L3.3858 0.487776L1.71913 1.82111L2.27306 2.51353ZM14.2731 1.82111L12.6064 0.487776L12.0525 1.18019L13.7191 2.51353L14.2731 1.82111ZM8.9961 9.11068H9.9961V8.22395H8.9961V9.11068ZM7.55273 7.66732C7.55273 8.46446 8.19895 9.11068 8.9961 9.11068V8.22395C8.68867 8.22395 8.43946 7.97474 8.43946 7.66732H7.55273Z"
          fill="#4F4F4F"/>
</svg>
