<svg width="1400" height="600" viewBox="0 0 1400 600" fill="none" xmlns="http://www.w3.org/2000/svg">
<g clip-path="url(#clip0_837_4)">
<rect width="1400" height="600" fill="#7B87FC"/>
<path d="M517.743 547.6H517.703C516.743 547.733 516.263 548.24 516.263 549.12C516.263 549.52 516.396 549.867 516.663 550.16C516.93 550.427 517.276 550.56 517.703 550.56C518.13 550.56 518.49 550.427 518.783 550.16C519.076 549.867 519.223 549.52 519.223 549.12C519.223 548.72 519.076 548.387 518.783 548.12C518.516 547.827 518.17 547.653 517.743 547.6ZM509.983 547.6H508.983C508.716 547.6 508.49 547.693 508.303 547.88C508.143 548.04 508.063 548.253 508.063 548.52V564.72H501.703V548.52C501.703 546.493 502.41 544.773 503.823 543.36C505.236 541.947 506.956 541.24 508.983 541.24H518.023C520.156 541.347 521.943 542.16 523.383 543.68C524.85 545.173 525.583 546.987 525.583 549.12C525.583 551.227 524.796 553.067 523.223 554.64C521.65 556.213 519.81 557 517.703 557H517.623C515.41 556.84 513.543 556.04 512.023 554.6C510.53 553.133 509.783 551.307 509.783 549.12C509.783 548.453 509.85 547.947 509.983 547.6ZM538.099 557H535.939C535.272 561.667 532.566 564.72 527.819 566.16L525.539 566.88L523.779 560.72L525.699 559.96C526.819 559.507 527.672 558.987 528.259 558.4C528.872 557.813 529.179 557.013 529.179 556V545.12H536.059V549.6C536.059 549.973 536.206 550.16 536.499 550.16H538.099C538.872 550.16 539.259 551.293 539.259 553.56C539.259 555.853 538.872 557 538.099 557ZM547.446 548.24C546.833 548.24 546.526 548.573 546.526 549.24C546.526 549.88 546.833 550.2 547.446 550.2C548.086 550.2 548.406 549.88 548.406 549.24C548.406 548.573 548.086 548.24 547.446 548.24ZM555.206 550.16H556.806C557.579 550.16 557.966 551.293 557.966 553.56C557.966 555.853 557.579 557 556.806 557H538.086C537.313 557 536.926 555.853 536.926 553.56C536.926 551.293 537.313 550.16 538.086 550.16H539.686V549.24C539.686 547.107 540.433 545.28 541.926 543.76C543.446 542.24 545.286 541.48 547.446 541.48C549.606 541.48 551.433 542.24 552.926 543.76C554.446 545.253 555.206 547.08 555.206 549.24V550.16ZM545.046 538.6V534.08H549.566V538.6H545.046ZM559.577 557H556.777C556.004 557 555.617 555.853 555.617 553.56C555.617 551.293 556.004 550.16 556.777 550.16H559.577C559.871 550.16 560.017 549.973 560.017 549.6V542.56H566.857V549.72C566.857 550.013 567.004 550.16 567.297 550.16H570.097C570.871 550.16 571.257 551.293 571.257 553.56C571.257 555.853 570.871 557 570.097 557H567.257C565.844 557 564.551 556.653 563.377 555.96C562.204 556.653 560.937 557 559.577 557ZM568.417 539.88H557.937V534.8H568.417V539.88ZM571.698 557H570.098C569.324 557 568.938 555.853 568.938 553.56C568.938 551.293 569.324 550.16 570.098 550.16H571.698C571.991 550.16 572.138 549.973 572.138 549.6V535H578.978V549.72C578.978 550.013 579.124 550.16 579.418 550.16H581.018C581.791 550.16 582.178 551.293 582.178 553.56C582.178 555.853 581.791 557 581.018 557H579.378C577.964 557 576.671 556.653 575.498 555.96C574.324 556.653 573.058 557 571.698 557ZM581.012 550.16H586.612C586.905 550.16 587.052 549.973 587.052 549.6V542.56H593.892V549.72C593.892 551.72 593.172 553.44 591.732 554.88C590.318 556.293 588.612 557 586.612 557H581.012C580.238 557 579.852 555.853 579.852 553.56C579.852 551.293 580.238 550.16 581.012 550.16ZM581.052 560.56H592.212V565.6H589.252V569.8H584.212V565.6H581.052V560.56ZM605.019 545.12H611.899V556.08C611.472 561.2 608.725 564.56 603.659 566.16L601.379 566.88L599.619 560.72L601.539 559.96C602.659 559.507 603.512 558.987 604.099 558.4C604.712 557.813 605.019 557.013 605.019 556V545.12ZM618.655 538.72L627.135 544.44C628.601 545.56 629.335 547.373 629.335 549.88C629.335 551.747 628.641 553.4 627.255 554.84C625.895 556.28 624.228 557 622.255 557H613.695V550.2H622.495C622.628 550.173 622.708 550.107 622.735 550C622.788 549.867 622.748 549.747 622.615 549.64L614.975 544.32L618.655 538.72ZM666.373 557H664.773C663.253 557 661.826 556.507 660.493 555.52C659 556.507 657.386 557 655.653 557H645.213C642.813 557 640.746 556.147 639.013 554.44C637.306 552.707 636.453 550.64 636.453 548.24V542.44H643.213V548.24C643.213 548.773 643.4 549.227 643.773 549.6C644.173 549.947 644.653 550.12 645.213 550.12H655.653C656.186 550.12 656.64 549.947 657.013 549.6C657.413 549.227 657.613 548.773 657.613 548.24V542.44H664.333V549.84C664.333 550.053 664.48 550.16 664.773 550.16H666.373C667.146 550.16 667.533 551.293 667.533 553.56C667.533 555.853 667.146 557 666.373 557ZM656.093 542.48H644.933V537.4H656.093V542.48ZM666.391 550.16H667.991C668.284 550.16 668.431 549.973 668.431 549.6V542.56H675.271V549.72C675.271 551.72 674.551 553.44 673.111 554.88C671.697 556.293 669.991 557 667.991 557H666.391C665.617 557 665.231 555.853 665.231 553.56C665.231 551.293 665.617 550.16 666.391 550.16ZM669.231 539.88V534.84H674.271V539.88H669.231ZM684.633 550.16H686.233C687.007 550.16 687.393 551.293 687.393 553.56C687.393 555.853 687.007 557 686.233 557H684.553C682.553 557 680.833 556.293 679.393 554.88C677.98 553.44 677.273 551.733 677.273 549.76V535H684.113V549.76C684.113 550.027 684.287 550.16 684.633 550.16ZM704.162 550.16H705.762C706.562 550.16 706.962 551.293 706.962 553.56C706.962 555.853 706.562 557 705.762 557H704.162C702.669 557 701.336 556.6 700.162 555.8C698.936 556.6 697.549 557 696.002 557C694.456 557 693.069 556.6 691.842 555.8C690.696 556.6 689.362 557 687.842 557H686.242C685.442 557 685.042 555.853 685.042 553.56C685.042 551.293 685.442 550.16 686.242 550.16H687.842C688.136 550.16 688.282 550.013 688.282 549.72V541.52H696.002C698.162 541.52 699.989 542.28 701.482 543.8C702.976 545.293 703.722 547.12 703.722 549.28V549.72C703.722 550.013 703.869 550.16 704.162 550.16ZM697.202 549.2C697.202 548.907 697.082 548.64 696.842 548.4C696.602 548.16 696.336 548.053 696.042 548.08H694.842V549.2C694.842 549.547 694.949 549.84 695.162 550.08C695.402 550.32 695.696 550.427 696.042 550.4C696.336 550.4 696.589 550.293 696.802 550.08C697.042 549.84 697.176 549.547 697.202 549.2ZM722.63 541C724.95 541 726.857 541.827 728.35 543.48C729.87 545.107 730.63 547.04 730.63 549.28C730.63 551.387 729.87 553.2 728.35 554.72C726.83 556.24 725.017 557 722.91 557H715.15C714.003 557 712.897 556.747 711.83 556.24C711.777 556.213 711.683 556.173 711.55 556.12C711.417 556.04 711.323 555.973 711.27 555.92C710.123 556.64 708.817 557 707.35 557H705.75C704.977 557 704.59 555.853 704.59 553.56C704.59 551.293 704.977 550.16 705.75 550.16H707.35C707.697 550.16 707.87 550.013 707.87 549.72V541.68H714.71V543.48C714.87 543.4 715.217 543.24 715.75 543C716.31 542.733 716.697 542.56 716.91 542.48C717.15 542.373 717.497 542.227 717.95 542.04C718.43 541.827 718.817 541.68 719.11 541.6C719.43 541.52 719.803 541.427 720.23 541.32C720.657 541.187 721.057 541.107 721.43 541.08C721.83 541.027 722.23 541 722.63 541ZM723.83 548.96C723.857 548.64 723.75 548.347 723.51 548.08C723.297 547.787 723.017 547.64 722.67 547.64H722.51C720.67 547.853 718.07 548.307 714.71 549V549.76C714.71 550.027 714.857 550.16 715.15 550.16H722.91C723.523 550.16 723.83 549.76 723.83 548.96ZM719.91 537V531.96H724.95V537H719.91ZM758.999 550.16H760.599C761.372 550.16 761.759 551.293 761.759 553.56C761.759 555.853 761.372 557 760.599 557H758.999C758.359 557 757.692 556.893 756.999 556.68C756.012 558.2 754.732 559.4 753.159 560.28C751.612 561.187 749.919 561.64 748.079 561.64C745.225 561.64 742.759 560.627 740.679 558.6C738.599 556.573 737.559 554.147 737.559 551.32V546.56H744.399V551.12C744.399 552.16 744.745 553.04 745.439 553.76C746.159 554.453 747.039 554.8 748.079 554.8C749.092 554.8 749.959 554.453 750.679 553.76C751.399 553.04 751.759 552.16 751.759 551.12V543.88H758.559V549.8C758.559 550.04 758.705 550.16 758.999 550.16ZM744.759 543.88V538.84H749.799V543.88H744.759ZM763.778 557H760.578C759.805 557 759.418 555.853 759.418 553.56C759.418 551.293 759.805 550.16 760.578 550.16H763.778C764.071 550.16 764.218 549.973 764.218 549.6V542.56H771.058V549.72C771.058 550.013 771.205 550.16 771.498 550.16H774.698C775.471 550.16 775.858 551.293 775.858 553.56C775.858 555.853 775.471 557 774.698 557H771.458C770.045 557 768.751 556.653 767.578 555.96C766.405 556.653 765.138 557 763.778 557ZM773.178 565.6H762.018V560.52H773.178V565.6ZM792.635 550.16H794.235C795.035 550.16 795.435 551.293 795.435 553.56C795.435 555.853 795.035 557 794.235 557H792.635C791.142 557 789.808 556.6 788.635 555.8C787.408 556.6 786.022 557 784.475 557C782.928 557 781.542 556.6 780.315 555.8C779.168 556.6 777.835 557 776.315 557H774.715C773.915 557 773.515 555.853 773.515 553.56C773.515 551.293 773.915 550.16 774.715 550.16H776.315C776.608 550.16 776.755 550.013 776.755 549.72V541.52H784.475C786.635 541.52 788.462 542.28 789.955 543.8C791.448 545.293 792.195 547.12 792.195 549.28V549.72C792.195 550.013 792.342 550.16 792.635 550.16ZM785.675 549.2C785.675 548.907 785.555 548.64 785.315 548.4C785.075 548.16 784.808 548.053 784.515 548.08H783.315V549.2C783.315 549.547 783.422 549.84 783.635 550.08C783.875 550.32 784.168 550.427 784.515 550.4C784.808 550.4 785.062 550.293 785.275 550.08C785.515 549.84 785.648 549.547 785.675 549.2ZM812.303 548.96C812.329 548.64 812.223 548.347 811.983 548.08C811.769 547.787 811.489 547.64 811.143 547.64H810.983C809.143 547.853 806.543 548.307 803.183 549V549.76C803.183 550.027 803.329 550.16 803.623 550.16H811.383C811.996 550.16 812.303 549.76 812.303 548.96ZM819.103 549.28C819.103 549.867 819.316 550.16 819.743 550.16H821.343C822.143 550.16 822.543 551.293 822.543 553.56C822.543 555.853 822.143 557 821.343 557H820.103C819.356 557 818.556 556.867 817.703 556.6C816.876 556.307 816.276 555.933 815.903 555.48C814.543 556.493 813.036 557 811.383 557H803.623C802.476 557 801.369 556.747 800.303 556.24C800.249 556.213 800.156 556.173 800.023 556.12C799.889 556.04 799.796 555.973 799.743 555.92C798.596 556.64 797.289 557 795.823 557H794.223C793.449 557 793.063 555.853 793.063 553.56C793.063 551.293 793.449 550.16 794.223 550.16H795.823C796.169 550.16 796.343 550.013 796.343 549.72V541.68H803.183V543.48C803.343 543.4 803.689 543.24 804.223 543C804.783 542.733 805.169 542.56 805.383 542.48C805.623 542.373 805.969 542.227 806.423 542.04C806.903 541.827 807.289 541.68 807.583 541.6C807.903 541.52 808.276 541.427 808.703 541.32C809.129 541.187 809.529 541.107 809.903 541.08C810.303 541.027 810.703 541 811.103 541C813.423 541 815.329 541.827 816.823 543.48C818.343 545.107 819.103 547.04 819.103 549.28ZM808.383 537V531.96H813.423V537H808.383ZM821.336 550.16H823.336C823.629 550.16 823.776 549.973 823.776 549.6V542.56H830.616V549.72C830.616 551.72 829.896 553.44 828.456 554.88C827.043 556.293 825.336 557 823.336 557H821.336C820.563 557 820.176 555.853 820.176 553.56C820.176 551.293 820.563 550.16 821.336 550.16ZM831.496 539.88H821.136V534.8H831.496V539.88ZM844.741 549.28C844.741 549.573 844.861 549.84 845.101 550.08C845.341 550.293 845.608 550.4 845.901 550.4H847.101V549.28C847.101 548.933 846.981 548.653 846.741 548.44C846.528 548.2 846.248 548.08 845.901 548.08C845.608 548.08 845.341 548.2 845.101 548.44C844.861 548.653 844.741 548.933 844.741 549.28ZM846.141 557H845.901C843.768 557 841.954 556.227 840.461 554.68C838.968 553.133 838.221 551.333 838.221 549.28C838.221 547.2 838.968 545.387 840.461 543.84C841.954 542.293 843.768 541.52 845.901 541.52C848.034 541.52 849.848 542.293 851.341 543.84C852.861 545.36 853.621 547.173 853.621 549.28V554.64C853.621 557.867 852.541 560.387 850.381 562.2C849.288 563.133 847.501 563.96 845.021 564.68C844.941 564.707 844.634 564.8 844.101 564.96C843.594 565.147 843.101 565.307 842.621 565.44C842.141 565.6 841.874 565.693 841.821 565.72L839.941 559.56C840.021 559.507 840.514 559.32 841.421 559C842.328 558.68 842.821 558.507 842.901 558.48C843.168 558.427 843.728 558.2 844.581 557.8C845.461 557.427 845.981 557.16 846.141 557ZM870.365 550.16H885.045C885.818 550.16 886.205 551.293 886.205 553.56C886.205 555.853 885.818 557 885.045 557H883.445C883.658 557.587 883.765 558.133 883.765 558.64C883.765 560.907 883.058 562.773 881.645 564.24C880.258 565.707 878.458 566.44 876.245 566.44H869.045C866.805 566.44 864.898 565.64 863.325 564.04C861.752 562.467 860.965 560.56 860.965 558.32V548.28H867.725V558.32C867.725 558.693 867.858 559.013 868.125 559.28C868.392 559.573 868.698 559.72 869.045 559.72H876.005C877.045 559.56 877.565 559.12 877.565 558.4C877.565 558.08 877.445 557.787 877.205 557.52C876.992 557.253 876.725 557.08 876.405 557H870.365V550.16ZM887.859 557H885.059C884.285 557 883.899 555.853 883.899 553.56C883.899 551.293 884.285 550.16 885.059 550.16H887.859C888.152 550.16 888.299 549.973 888.299 549.6V542.56H895.139V549.72C895.139 550.013 895.285 550.16 895.579 550.16H898.379C899.152 550.16 899.539 551.293 899.539 553.56C899.539 555.853 899.152 557 898.379 557H895.539C894.125 557 892.832 556.653 891.659 555.96C890.485 556.653 889.219 557 887.859 557ZM896.699 539.88H886.219V534.8H896.699V539.88ZM898.379 550.16H899.979C900.272 550.16 900.419 549.973 900.419 549.6V542.56H907.259V549.72C907.259 551.72 906.539 553.44 905.099 554.88C903.686 556.293 901.979 557 899.979 557H898.379C897.606 557 897.219 555.853 897.219 553.56C897.219 551.293 897.606 550.16 898.379 550.16ZM901.219 539.88V534.84H906.259V539.88H901.219ZM916.102 557H909.262V535H916.102V557ZM920.109 545.12H926.989V556.08C926.562 561.2 923.815 564.56 918.749 566.16L916.469 566.88L914.709 560.72L916.629 559.96C917.749 559.507 918.602 558.987 919.189 558.4C919.802 557.813 920.109 557.013 920.109 556V545.12ZM936.344 550.16H937.944C938.718 550.16 939.104 551.293 939.104 553.56C939.104 555.853 938.718 557 937.944 557H936.264C934.264 557 932.544 556.293 931.104 554.88C929.691 553.44 928.984 551.733 928.984 549.76V535H935.824V549.76C935.824 550.027 935.998 550.16 936.344 550.16ZM948.713 549.64C948.713 549.347 948.54 549.067 948.193 548.8C948.166 548.773 948.113 548.747 948.033 548.72L947.913 548.6L940.153 542.88V539.16L937.953 537.04L943.473 531.52L945.633 533.72L947.633 531.76L951.873 535.8L947.593 540.24C948.046 540.613 948.593 541.013 949.233 541.44C950.54 542.4 951.46 543.093 951.993 543.52C953.3 544.507 954.193 545.4 954.673 546.2C955.153 546.973 955.393 548.16 955.393 549.76C955.393 551.76 954.7 553.467 953.313 554.88C951.953 556.293 950.273 557 948.273 557H937.993C937.193 557 936.793 555.853 936.793 553.56C936.793 551.293 937.193 550.16 937.993 550.16H948.033C948.486 550.16 948.713 549.987 948.713 549.64Z" fill="#191356"/>
<path d="M835.929 133.851C819.225 130.096 803.334 123.36 789.02 113.967C765.471 98.6237 744.477 78.0994 725.87 57C707.632 77.7088 687.11 97.8316 664.087 113.028C649.452 122.709 633.193 129.671 616.088 133.58C604.218 136.292 592.121 137.095 580.138 139.005C580.034 152.851 578.928 166.675 579.004 180.542C579.139 206.009 581.174 231.541 586.3 256.498C591.568 282.263 600.063 307.545 613.424 330.283C628.771 356.439 649.808 375.314 674.692 392.133C687.799 400.998 701.106 409.565 714.521 417.947C717.879 420.047 722.512 421.929 725.371 424.653C725.537 424.79 725.719 424.906 725.913 425C726.088 424.907 726.248 424.79 726.391 424.653C729.195 421.674 734.636 419.591 738.097 417.426C744 413.733 749.877 409.997 755.728 406.217C769.768 397.157 784.094 388.161 797.261 377.848C840.236 344.205 860.801 291.247 868.591 238.659C873.544 205.233 871.657 172.469 871.602 139.016C859.716 137.139 847.711 136.466 835.929 133.851Z" fill="#3A3570"/>
<path d="M895.27 118.052C871.565 113.825 833.168 116.506 786.055 81.4576C752.043 56.1528 719.731 18.9658 719.731 18.9658C719.731 18.9658 687.043 56.5725 653.392 81.433C607.227 115.548 567.901 113.8 544.182 118.027C544.34 144.562 523.356 327.054 639.742 410.525C671.476 433.287 719.489 462.72 719.745 462.636C719.973 462.72 767.99 433.287 799.724 410.525C916.12 327.054 895.107 144.562 895.27 118.052ZM860.424 191.576C860.137 216.165 857.865 240.838 852.522 264.869C847.149 289.067 838.541 312.836 825.36 333.924C810.545 357.629 790.445 374.518 767.481 389.956C755.559 397.966 743.493 405.758 731.282 413.33C727.514 415.676 722.368 420.777 717.829 419.256C714.54 418.145 711.118 415.172 708.189 413.33C702.978 410.067 697.789 406.79 692.623 403.497C679.343 394.984 665.955 386.43 653.342 376.958C612.175 346.063 591.527 296.954 583.596 247.372C580.272 226.595 578.939 205.547 579.008 184.519C579.052 172.41 580.094 160.321 580.084 148.211C580.084 147.199 580.85 145.989 581.912 145.806C592.865 143.949 603.967 143.273 614.852 140.967C630.996 137.546 646.351 131.112 660.113 122.003C681.749 107.73 700.969 88.5098 717.968 69.0077C718.437 68.5438 719.071 68.2837 719.731 68.2837C720.391 68.2837 721.024 68.5438 721.494 69.0077C738.813 88.8703 758.473 108.456 780.593 122.872C794.337 131.874 809.68 138.159 825.79 141.386C836.294 143.48 847.001 144.004 857.544 145.787C858.049 145.832 858.517 146.069 858.852 146.45C859.186 146.83 859.362 147.325 859.342 147.831C859.361 147.95 859.373 148.071 859.377 148.192C859.362 162.661 860.592 177.097 860.424 191.576Z" fill="url(#paint0_linear_837_4)"/>
<path d="M719.632 464.621C719.425 464.611 719.223 464.562 719.034 464.478V464.429C717.967 463.984 715.844 462.676 710.545 459.406C707.053 457.253 699.804 452.749 690.475 446.808C676.035 437.608 655.313 424.126 638.581 412.125C593.354 379.689 563.392 328.704 549.54 260.592C538.379 205.71 540.69 154.355 541.806 129.672C542.033 124.571 542.216 120.541 542.201 118.042C542.194 117.574 542.353 117.118 542.651 116.756C542.948 116.394 543.365 116.15 543.826 116.067C548.211 115.282 553.179 114.699 558.434 114.091C582.257 111.276 614.891 107.419 652.211 79.8379C685.299 55.3972 717.893 18.0127 718.224 17.6424C718.414 17.4396 718.644 17.278 718.898 17.1675C719.153 17.057 719.428 17 719.706 17C719.984 17 720.258 17.057 720.513 17.1675C720.768 17.278 720.998 17.4396 721.187 17.6424C721.508 18.0078 753.782 54.9626 787.205 79.8675C825.01 108.017 857.1 111.538 880.543 114.131C885.975 114.728 891.067 115.296 895.601 116.106C896.062 116.189 896.478 116.434 896.776 116.795C897.073 117.157 897.233 117.613 897.225 118.082C897.225 120.581 897.393 124.61 897.62 129.712C898.732 154.404 901.048 205.765 889.882 260.632C876.054 328.743 846.072 379.729 800.841 412.165C784.114 424.165 763.387 437.647 748.947 446.848C739.623 452.774 732.373 457.293 728.882 459.446C723.583 462.715 721.474 464.024 720.387 464.468V464.523C720.17 464.62 719.934 464.665 719.696 464.656L719.632 464.621ZM546.147 119.697C546.103 122.24 545.95 125.692 545.762 129.85C544.656 154.375 542.359 205.409 553.421 259.807C567.072 326.911 596.505 377.082 640.897 408.95C670.168 429.938 713.039 456.448 719.731 460.399C726.422 456.448 769.303 429.928 798.559 408.95C842.956 377.106 872.39 326.936 886.035 259.807C897.102 205.404 894.801 154.375 893.699 129.85C893.512 125.692 893.354 122.24 893.309 119.697C889.304 119.04 884.83 118.546 880.123 118.052C856.246 115.41 823.543 111.79 784.879 83.0281C755.194 60.9283 726.482 29.48 719.731 21.9142C712.935 29.5293 683.961 61.2987 654.572 83.0183C616.412 111.222 583.181 115.148 558.913 118.013C554.36 118.546 550.029 119.064 546.147 119.697ZM719.568 421.498C718.753 421.499 717.944 421.366 717.172 421.103C714.634 420.249 712.234 418.54 709.893 416.886C708.905 416.194 707.987 415.538 707.123 414.999C702.08 411.858 696.836 408.54 691.537 405.122L690.638 404.545C677.798 396.317 664.533 387.803 652.117 378.499C605.557 343.554 588.075 288.055 581.61 247.629C578.47 228.028 576.924 206.772 576.998 184.455C576.998 178.529 577.284 172.499 577.536 166.677C577.803 160.597 578.079 154.33 578.074 148.152C578.074 146.35 579.398 144.172 581.531 143.806C586.188 143.016 590.915 142.428 595.507 141.865C601.735 141.095 608.175 140.3 614.397 138.981C630.299 135.62 645.423 129.288 658.977 120.319C677.59 108.111 695.863 91.3841 716.481 67.7188C716.891 67.2675 717.392 66.9089 717.952 66.6671C718.511 66.4252 719.116 66.3056 719.726 66.3163C720.336 66.3055 720.941 66.4251 721.502 66.6669C722.062 66.9088 722.564 67.2674 722.975 67.7188C743.998 91.8335 762.651 108.837 781.664 121.227C795.198 130.094 810.306 136.283 826.17 139.46C831.914 140.606 837.86 141.288 843.608 141.93C848.285 142.468 853.12 143.026 857.87 143.831C858.844 144.075 859.71 144.633 860.335 145.418C860.96 146.204 861.309 147.173 861.327 148.177C861.327 154.943 861.594 161.832 861.856 168.494C862.157 176.045 862.463 183.858 862.374 191.581C862.058 218.526 859.466 242.631 854.438 265.274C848.561 291.887 839.336 315.311 827.029 334.971C813.893 355.945 796.416 372.879 768.572 391.591C757.318 399.157 745.455 406.816 732.319 414.999C731.543 415.493 730.679 416.111 729.761 416.777C726.807 418.921 723.257 421.498 719.568 421.498ZM719.726 70.2572C719.619 70.249 719.512 70.2731 719.419 70.3263C698.564 94.2484 680.055 111.202 661.18 123.662C647.216 132.904 631.634 139.428 615.252 142.893C608.866 144.246 602.337 145.051 596.031 145.856C591.492 146.414 586.801 146.997 582.233 147.772C582.135 147.908 582.071 148.066 582.045 148.231C582.045 154.478 581.773 160.81 581.507 166.928C581.25 172.706 581.013 178.682 580.968 184.544C580.894 206.649 582.425 227.687 585.532 247.08C591.892 286.732 609.014 341.213 654.523 375.348C666.805 384.563 680.015 393.033 692.786 401.231L693.685 401.804C698.969 405.196 704.199 408.5 709.226 411.636C710.214 412.234 711.157 412.92 712.189 413.651C714.288 415.133 716.466 416.678 718.456 417.35C721.029 418.229 724.437 415.75 727.445 413.567C728.432 412.861 729.341 412.189 730.235 411.636C743.332 403.473 755.154 395.833 766.375 388.302C793.729 369.916 810.871 353.352 823.686 332.877C835.756 313.617 844.813 290.574 850.611 264.439C855.549 242.063 858.142 218.225 858.453 191.557C858.542 183.932 858.236 176.173 857.959 168.667C857.693 161.965 857.421 155.036 857.426 148.197C857.426 148.118 857.391 147.93 857.391 147.851C857.391 147.772 857.362 147.757 857.233 147.737C852.591 146.952 847.806 146.399 843.183 145.866C837.356 145.194 831.331 144.503 825.405 143.327C809.048 140.053 793.47 133.673 779.516 124.531C760.192 111.933 741.282 94.7077 720.007 70.3066C719.925 70.2696 719.835 70.2527 719.745 70.2572H719.726Z" fill="url(#paint1_linear_837_4)"/>
<path d="M720.235 412.056L719.247 411.533C718.927 411.368 718.63 411.162 718.363 410.92C716.837 409.478 714.565 408.263 712.368 407.088C711.207 406.466 710.007 405.824 708.94 405.157C695.715 396.895 684.03 389.319 673.215 382C647.313 364.483 630.206 347.199 617.751 325.963C606.674 307.083 598.426 284.643 593.236 259.293C588.949 238.324 586.816 215.943 586.663 190.87C586.623 184.105 586.905 177.26 587.157 170.622C587.384 165.052 587.616 159.289 587.651 153.639V151.91L589.354 151.639C593.305 151.007 597.33 150.503 601.207 150.019C607.869 149.18 614.758 148.315 621.4 146.809C636.499 143.378 650.851 137.241 663.763 128.695C681.507 116.985 699.468 100.693 718.679 78.8848L720.21 77.1465L721.741 78.8848C741.352 101.133 759.703 117.701 777.857 129.529C790.467 137.813 804.471 143.75 819.192 147.051C825.612 148.478 832.304 149.268 838.759 150.014C842.774 150.508 846.922 150.977 851.006 151.619L852.73 151.891V153.629C852.73 159.96 852.829 166.356 852.913 172.549C853.219 195.577 853.54 219.39 850.019 243.169C844.255 282.05 828.363 335.465 785.374 369.101C774.766 377.403 763.224 384.83 752.063 392.011L748.029 394.608C742.779 397.996 737.46 401.379 732.225 404.658C731.134 405.34 729.899 405.982 728.591 406.663C726.121 407.942 723.593 409.261 722.171 410.797C721.896 411.082 721.578 411.32 721.227 411.503L720.235 412.056ZM591.745 155.407C591.671 160.558 591.458 165.753 591.251 170.79C590.984 177.364 590.708 184.159 590.757 190.831C590.895 215.627 593.014 237.747 597.251 258.454C602.333 283.393 610.427 305.409 621.292 323.904C633.421 344.571 650.147 361.436 675.536 378.622C686.307 385.912 697.957 393.438 711.138 401.695C712.091 402.288 713.178 402.87 714.328 403.488C716.386 404.51 718.35 405.714 720.195 407.083C722.062 405.498 724.516 404.219 726.729 403.073C727.963 402.431 729.129 401.824 730.082 401.226C735.302 397.957 740.606 394.589 745.841 391.211L749.88 388.608C760.962 381.477 772.425 374.104 782.88 365.891C824.793 333.084 840.329 280.722 845.994 242.572C849.451 219.133 849.164 196.54 848.843 172.623C848.769 166.993 848.69 161.185 848.67 155.412C845.213 154.918 841.702 154.488 838.299 154.083C831.741 153.313 824.965 152.508 818.328 151.036C803.128 147.63 788.669 141.504 775.65 132.952C757.659 121.228 739.515 104.975 720.23 83.3147C701.355 104.55 683.606 120.502 666.03 132.102C652.724 140.914 637.933 147.245 622.373 150.789C615.538 152.34 608.545 153.219 601.785 154.069C598.476 154.479 595.088 154.903 591.745 155.407Z" fill="url(#paint2_linear_837_4)"/>
<g opacity="0.65">
<path style="mix-blend-mode:multiply" d="M912.505 405.651C797.176 362.015 672.943 362.015 557.614 405.651V417.138H912.505V405.651Z" fill="url(#paint3_linear_837_4)"/>
</g>
<path d="M874.518 416.15L961.312 440.956L952.521 394.05L984.77 358.873L897.975 334.072L874.518 416.15Z" fill="url(#paint4_linear_837_4)"/>
<path opacity="0.3" d="M874.518 416.151L896.198 416.472C899.381 416.519 902.492 415.516 905.048 413.617C907.604 411.718 909.463 409.029 910.337 405.967L911.156 403.083L880.735 394.392L874.518 416.151Z" fill="black"/>
<path d="M963.608 445.06L872.518 419.029L896.914 333.667L988 359.698L954.462 396.277L963.608 445.06ZM876.74 416.688L959.213 440.26L950.773 395.23L981.733 361.461L899.255 337.884L876.74 416.688Z" fill="url(#paint5_linear_837_4)"/>
<path d="M896.524 419.889H896.282L872.375 419.538L879.205 395.641L882.489 396.584L876.884 416.2L896.332 416.486H896.524C899.299 416.482 901.998 415.577 904.213 413.906C906.429 412.235 908.041 409.889 908.806 407.221L909.631 404.337L912.91 405.276L912.086 408.16C911.113 411.537 909.07 414.507 906.264 416.623C903.457 418.738 900.039 419.884 896.524 419.889Z" fill="url(#paint6_linear_837_4)"/>
<path d="M576.02 416.698L489.562 442.65L497.735 395.631L465.022 360.888L551.481 334.937L576.02 416.698Z" fill="url(#paint7_linear_837_4)"/>
<path opacity="0.3" d="M576.02 416.698L554.349 417.325C551.167 417.417 548.043 416.456 545.461 414.592C542.88 412.728 540.986 410.064 540.072 407.014L539.208 404.145L569.516 395.048L576.02 416.698Z" fill="black"/>
<path d="M487.517 446.784L496.016 397.892L462 361.752L552.735 334.517L578.257 419.548L487.517 446.784ZM468.257 363.432L499.661 396.791L491.819 441.929L573.995 417.237L550.439 338.744L468.257 363.432Z" fill="url(#paint8_linear_837_4)"/>
<path d="M910.688 405.271C790.012 366.059 660.019 366.059 539.342 405.271C530.545 378.208 521.751 351.145 512.961 324.082C650.784 279.3 799.247 279.3 937.07 324.082C928.266 351.145 919.472 378.208 910.688 405.271Z" fill="url(#paint9_linear_837_4)"/>
<path d="M554.054 420.727C550.573 420.722 547.187 419.598 544.395 417.52C541.602 415.443 539.552 412.523 538.547 409.191L537.688 406.322L540.957 405.334L541.816 408.208C542.623 410.9 544.293 413.251 546.569 414.898C548.845 416.546 551.6 417.399 554.409 417.325L573.882 416.762L567.99 397.225L571.259 396.237L578.405 420.046L554.508 420.713L554.054 420.727Z" fill="url(#paint10_linear_837_4)"/>
<path d="M911.877 409.128L910.258 408.6C789.923 369.5 660.298 369.5 539.964 408.6L538.324 409.128L510.891 324.68L512.515 324.151C650.68 279.257 799.511 279.257 937.676 324.151L939.301 324.68L911.877 409.128ZM725.108 375.843C787.773 375.832 850.055 385.613 909.7 404.832L935.024 326.887C798.543 282.915 651.698 282.915 515.217 326.887L540.532 404.832C600.172 385.614 662.448 375.833 725.108 375.843Z" fill="url(#paint11_linear_837_4)"/>
<rect x="663" y="165" width="114" height="104" rx="20" fill="#D9D9D9"/>
<path d="M706.935 224.979H705.314C704.973 229.532 703.756 232.937 701.664 235.192C701.35 235.521 700.939 235.685 700.434 235.685H690.815C689.681 235.685 689.113 235.22 689.113 234.29C689.113 233.784 689.359 233.415 689.852 233.183C690.74 232.759 691.711 232.246 692.764 231.645C693.83 231.057 694.985 230.373 696.229 229.594C699.593 227.488 701.302 226.019 701.356 225.185C698.581 225.185 696.776 225.021 695.942 224.692C694.11 223.968 693.194 222.3 693.194 219.688C693.194 217.296 693.591 215.061 694.384 212.982C695.464 210.098 697.077 208.655 699.224 208.655C702.204 208.655 704.159 210.993 705.089 215.669H706.935V224.979ZM701.09 217.412C701.09 217.207 701.001 216.995 700.823 216.776C700.646 216.558 700.427 216.366 700.167 216.202C699.907 216.024 699.627 215.881 699.326 215.771C699.039 215.662 698.779 215.607 698.547 215.607C697.289 215.607 696.66 216.079 696.66 217.022C696.66 217.542 697.433 217.802 698.978 217.802C700.386 217.802 701.09 217.672 701.09 217.412ZM724.879 195.1L724.653 197.007L708.883 202.113L709.272 199.898L724.879 195.1ZM724.551 198.873L724.12 204.472C724.106 204.636 724.086 204.766 724.059 204.861C724.045 204.943 724.018 205.012 723.977 205.066C723.949 205.107 723.901 205.142 723.833 205.169C723.778 205.183 723.703 205.203 723.607 205.23L715.527 207.445C717.619 209.934 718.665 212.524 718.665 215.218C718.665 216.735 718.46 218.103 718.05 219.319C717.64 220.522 717.045 221.548 716.266 222.396C715.5 223.229 714.557 223.872 713.436 224.323C712.328 224.761 711.07 224.979 709.662 224.979H705.52V215.669H708.268C708.924 215.669 709.56 215.662 710.175 215.648C710.79 215.621 711.33 215.58 711.795 215.525C712.273 215.457 712.656 215.361 712.943 215.238C713.23 215.115 713.374 214.944 713.374 214.726C713.374 214.425 712.882 213.782 711.897 212.798C710.913 211.813 709.519 210.494 707.714 208.84L708.678 203.692C708.678 203.624 708.732 203.521 708.842 203.385L724.202 198.463C724.271 198.436 724.318 198.422 724.346 198.422C724.387 198.422 724.421 198.422 724.448 198.422C724.517 198.422 724.551 198.511 724.551 198.688V198.873ZM741.88 224.979H740.26C739.918 229.532 738.701 232.937 736.609 235.192C736.295 235.521 735.885 235.685 735.379 235.685H725.761C724.626 235.685 724.059 235.22 724.059 234.29C724.059 233.784 724.305 233.415 724.797 233.183C725.686 232.759 726.656 232.246 727.709 231.645C728.775 231.057 729.931 230.373 731.175 229.594C734.538 227.488 736.247 226.019 736.302 225.185C733.526 225.185 731.722 225.021 730.888 224.692C729.056 223.968 728.14 222.3 728.14 219.688C728.14 217.296 728.536 215.061 729.329 212.982C730.409 210.098 732.022 208.655 734.169 208.655C737.149 208.655 739.104 210.993 740.034 215.669H741.88V224.979ZM736.035 217.412C736.035 217.207 735.946 216.995 735.769 216.776C735.591 216.558 735.372 216.366 735.112 216.202C734.853 216.024 734.572 215.881 734.271 215.771C733.984 215.662 733.725 215.607 733.492 215.607C732.234 215.607 731.605 216.079 731.605 217.022C731.605 217.542 732.378 217.802 733.923 217.802C735.331 217.802 736.035 217.672 736.035 217.412ZM752.646 201.642C752.811 202.011 752.893 202.305 752.893 202.523C752.893 202.824 752.694 202.975 752.298 202.975C751.97 202.975 751.416 202.858 750.637 202.626L751.129 215.259C751.129 215.409 751.129 215.566 751.129 215.73C751.143 215.881 751.149 216.031 751.149 216.182C751.149 217.562 750.999 218.8 750.698 219.894C750.411 220.974 749.994 221.896 749.447 222.662C748.9 223.414 748.237 223.988 747.458 224.385C746.679 224.781 745.811 224.979 744.854 224.979H740.465V215.669H742.475C743.104 215.669 743.623 215.642 744.033 215.587C744.443 215.532 744.765 215.443 744.997 215.32C745.243 215.184 745.414 215.013 745.51 214.808C745.605 214.603 745.653 214.35 745.653 214.049C745.653 212.955 745.366 210.856 744.792 207.753C744.478 206.099 744.149 204.54 743.808 203.077C743.479 201.614 743.138 200.233 742.782 198.935L747.93 194.382C748.395 193.972 748.702 193.767 748.853 193.767C749.017 193.767 749.242 194.081 749.529 194.71L752.646 201.642Z" fill="#443E82"/>
<rect x="1374" width="26" height="600" fill="#3A3570"/>
<rect width="26" height="600" fill="#3A3570"/>
</g>
<defs>
<linearGradient id="paint0_linear_837_4" x1="542.814" y1="240.789" x2="896.648" y2="240.789" gradientUnits="userSpaceOnUse">
<stop stop-color="#A57D24"/>
<stop offset="0.21" stop-color="#D8BE62"/>
<stop offset="0.33" stop-color="#F1DD80"/>
<stop offset="0.52" stop-color="#FBF2A8"/>
<stop offset="0.73" stop-color="#F1DD80"/>
<stop offset="1" stop-color="#A57D24"/>
</linearGradient>
<linearGradient id="paint1_linear_837_4" x1="540.838" y1="240.813" x2="898.618" y2="240.813" gradientUnits="userSpaceOnUse">
<stop stop-color="#F1DD80"/>
<stop offset="0.2" stop-color="#A57D24"/>
<stop offset="0.27" stop-color="#A88128"/>
<stop offset="0.33" stop-color="#B18C33"/>
<stop offset="0.39" stop-color="#C1A045"/>
<stop offset="0.45" stop-color="#D6BB5F"/>
<stop offset="0.51" stop-color="#F1DD80"/>
<stop offset="0.52" stop-color="#FBF2A8"/>
<stop offset="0.59" stop-color="#F1DD80"/>
<stop offset="0.84" stop-color="#A57D24"/>
<stop offset="0.94" stop-color="#D8BE62"/>
<stop offset="1" stop-color="#F1DD80"/>
</linearGradient>
<linearGradient id="paint2_linear_837_4" x1="586.658" y1="244.601" x2="853.095" y2="244.601" gradientUnits="userSpaceOnUse">
<stop stop-color="#F1DD80"/>
<stop offset="0.2" stop-color="#A57D24"/>
<stop offset="0.27" stop-color="#A88128"/>
<stop offset="0.33" stop-color="#B18C33"/>
<stop offset="0.39" stop-color="#C1A045"/>
<stop offset="0.45" stop-color="#D6BB5F"/>
<stop offset="0.51" stop-color="#F1DD80"/>
<stop offset="0.52" stop-color="#FBF2A8"/>
<stop offset="0.59" stop-color="#F1DD80"/>
<stop offset="0.84" stop-color="#A57D24"/>
<stop offset="0.94" stop-color="#D8BE62"/>
<stop offset="1" stop-color="#F1DD80"/>
</linearGradient>
<linearGradient id="paint3_linear_837_4" x1="735.06" y1="428.225" x2="735.06" y2="343.253" gradientUnits="userSpaceOnUse">
<stop stop-color="white"/>
<stop offset="0.01" stop-color="#FBFBFB"/>
<stop offset="0.23" stop-color="#B0B0B0"/>
<stop offset="0.43" stop-color="#727272"/>
<stop offset="0.62" stop-color="#414141"/>
<stop offset="0.78" stop-color="#1D1D1D"/>
<stop offset="0.91" stop-color="#080808"/>
<stop offset="1"/>
</linearGradient>
<linearGradient id="paint4_linear_837_4" x1="874.518" y1="387.512" x2="984.77" y2="387.512" gradientUnits="userSpaceOnUse">
<stop stop-color="#A57D24"/>
<stop offset="0.21" stop-color="#D8BE62"/>
<stop offset="0.33" stop-color="#F1DD80"/>
<stop offset="0.52" stop-color="#FBF2A8"/>
<stop offset="0.73" stop-color="#F1DD80"/>
<stop offset="1" stop-color="#A57D24"/>
</linearGradient>
<linearGradient id="paint5_linear_837_4" x1="872.518" y1="389.363" x2="988" y2="389.363" gradientUnits="userSpaceOnUse">
<stop stop-color="#F1DD80"/>
<stop offset="0.2" stop-color="#A57D24"/>
<stop offset="0.27" stop-color="#A88128"/>
<stop offset="0.33" stop-color="#B18C33"/>
<stop offset="0.39" stop-color="#C1A045"/>
<stop offset="0.45" stop-color="#D6BB5F"/>
<stop offset="0.51" stop-color="#F1DD80"/>
<stop offset="0.52" stop-color="#FBF2A8"/>
<stop offset="0.59" stop-color="#F1DD80"/>
<stop offset="0.84" stop-color="#A57D24"/>
<stop offset="0.94" stop-color="#D8BE62"/>
<stop offset="1" stop-color="#F1DD80"/>
</linearGradient>
<linearGradient id="paint6_linear_837_4" x1="872.375" y1="407.76" x2="912.91" y2="407.76" gradientUnits="userSpaceOnUse">
<stop stop-color="#F1DD80"/>
<stop offset="0.2" stop-color="#A57D24"/>
<stop offset="0.27" stop-color="#A88128"/>
<stop offset="0.33" stop-color="#B18C33"/>
<stop offset="0.39" stop-color="#C1A045"/>
<stop offset="0.45" stop-color="#D6BB5F"/>
<stop offset="0.51" stop-color="#F1DD80"/>
<stop offset="0.52" stop-color="#FBF2A8"/>
<stop offset="0.59" stop-color="#F1DD80"/>
<stop offset="0.84" stop-color="#A57D24"/>
<stop offset="0.94" stop-color="#D8BE62"/>
<stop offset="1" stop-color="#F1DD80"/>
</linearGradient>
<linearGradient id="paint7_linear_837_4" x1="408.827" y1="388.791" x2="535.727" y2="388.791" gradientUnits="userSpaceOnUse">
<stop stop-color="#A57D24"/>
<stop offset="0.21" stop-color="#D8BE62"/>
<stop offset="0.33" stop-color="#F1DD80"/>
<stop offset="0.52" stop-color="#FBF2A8"/>
<stop offset="0.73" stop-color="#F1DD80"/>
<stop offset="1" stop-color="#A57D24"/>
</linearGradient>
<linearGradient id="paint8_linear_837_4" x1="462" y1="390.653" x2="578.257" y2="390.653" gradientUnits="userSpaceOnUse">
<stop stop-color="#F1DD80"/>
<stop offset="0.2" stop-color="#A57D24"/>
<stop offset="0.27" stop-color="#A88128"/>
<stop offset="0.33" stop-color="#B18C33"/>
<stop offset="0.39" stop-color="#C1A045"/>
<stop offset="0.45" stop-color="#D6BB5F"/>
<stop offset="0.51" stop-color="#F1DD80"/>
<stop offset="0.52" stop-color="#FBF2A8"/>
<stop offset="0.59" stop-color="#F1DD80"/>
<stop offset="0.84" stop-color="#A57D24"/>
<stop offset="0.94" stop-color="#D8BE62"/>
<stop offset="1" stop-color="#F1DD80"/>
</linearGradient>
<linearGradient id="paint9_linear_837_4" x1="512.946" y1="347.881" x2="937.055" y2="347.881" gradientUnits="userSpaceOnUse">
<stop stop-color="#A57D24"/>
<stop offset="0.21" stop-color="#D8BE62"/>
<stop offset="0.33" stop-color="#F1DD80"/>
<stop offset="0.52" stop-color="#FBF2A8"/>
<stop offset="0.73" stop-color="#F1DD80"/>
<stop offset="1" stop-color="#A57D24"/>
</linearGradient>
<linearGradient id="paint10_linear_837_4" x1="537.688" y1="408.485" x2="578.405" y2="408.485" gradientUnits="userSpaceOnUse">
<stop stop-color="#F1DD80"/>
<stop offset="0.2" stop-color="#A57D24"/>
<stop offset="0.27" stop-color="#A88128"/>
<stop offset="0.33" stop-color="#B18C33"/>
<stop offset="0.39" stop-color="#C1A045"/>
<stop offset="0.45" stop-color="#D6BB5F"/>
<stop offset="0.51" stop-color="#F1DD80"/>
<stop offset="0.52" stop-color="#FBF2A8"/>
<stop offset="0.59" stop-color="#F1DD80"/>
<stop offset="0.84" stop-color="#A57D24"/>
<stop offset="0.94" stop-color="#D8BE62"/>
<stop offset="1" stop-color="#F1DD80"/>
</linearGradient>
<linearGradient id="paint11_linear_837_4" x1="510.905" y1="349.812" x2="939.316" y2="349.812" gradientUnits="userSpaceOnUse">
<stop stop-color="#F1DD80"/>
<stop offset="0.2" stop-color="#A57D24"/>
<stop offset="0.27" stop-color="#A88128"/>
<stop offset="0.33" stop-color="#B18C33"/>
<stop offset="0.39" stop-color="#C1A045"/>
<stop offset="0.45" stop-color="#D6BB5F"/>
<stop offset="0.51" stop-color="#F1DD80"/>
<stop offset="0.52" stop-color="#FBF2A8"/>
<stop offset="0.59" stop-color="#F1DD80"/>
<stop offset="0.84" stop-color="#A57D24"/>
<stop offset="0.94" stop-color="#D8BE62"/>
<stop offset="1" stop-color="#F1DD80"/>
</linearGradient>
<clipPath id="clip0_837_4">
<rect width="1400" height="600" fill="white"/>
</clipPath>
</defs>
</svg>
